<?xml version="1.0" encoding="UTF-8"?>
<!DOCTYPE svg PUBLIC "-//W3C//DTD SVG 1.1//EN" "http://www.w3.org/Graphics/SVG/1.1/DTD/svg11.dtd">
<svg version="1.2" width="23.83mm" height="23.3mm" viewBox="1605 2486 2383 2330" preserveAspectRatio="xMidYMid" fill-rule="evenodd" stroke-width="28.222" stroke-linejoin="round" xmlns="http://www.w3.org/2000/svg" xmlns:ooo="http://xml.openoffice.org/svg/export" xmlns:xlink="http://www.w3.org/1999/xlink" xmlns:presentation="http://sun.com/xmlns/staroffice/presentation" xmlns:smil="http://www.w3.org/2001/SMIL20/" xmlns:anim="urn:oasis:names:tc:opendocument:xmlns:animation:1.0" xml:space="preserve">
 <defs class="ClipPathGroup">
  <clipPath id="presentation_clip_path" clipPathUnits="userSpaceOnUse">
   <rect x="1605" y="2486" width="2383" height="2330"/>
  </clipPath>
  <clipPath id="presentation_clip_path_shrink" clipPathUnits="userSpaceOnUse">
   <rect x="1607" y="2488" width="2379" height="2326"/>
  </clipPath>
 </defs>
 <defs class="TextShapeIndex">
  <g ooo:slide="id1" ooo:id-list="id3 id4 id5 id6 id7 id8 id9 id10 id11 id12 id13 id14 id15 id16 id17 id18 id19 id20 id21 id22 id23 id24 id25 id26 id27 id28 id29 id30 id31 id32 id33 id34 id35 id36 id37 id38 id39 id40 id41 id42 id43 id44 id45 id46"/>
 </defs>
 <defs class="EmbeddedBulletChars">
  <g id="bullet-char-template(57356)" transform="scale(0.00048828125,-0.00048828125)">
   <path d="M 580,1141 L 1163,571 580,0 -4,571 580,1141 Z"/>
  </g>
  <g id="bullet-char-template(57354)" transform="scale(0.00048828125,-0.00048828125)">
   <path d="M 8,1128 L 1137,1128 1137,0 8,0 8,1128 Z"/>
  </g>
  <g id="bullet-char-template(10146)" transform="scale(0.00048828125,-0.00048828125)">
   <path d="M 174,0 L 602,739 174,1481 1456,739 174,0 Z M 1358,739 L 309,1346 659,739 1358,739 Z"/>
  </g>
  <g id="bullet-char-template(10132)" transform="scale(0.00048828125,-0.00048828125)">
   <path d="M 2015,739 L 1276,0 717,0 1260,543 174,543 174,936 1260,936 717,1481 1274,1481 2015,739 Z"/>
  </g>
  <g id="bullet-char-template(10007)" transform="scale(0.00048828125,-0.00048828125)">
   <path d="M 0,-2 C -7,14 -16,27 -25,37 L 356,567 C 262,823 215,952 215,954 215,979 228,992 255,992 264,992 276,990 289,987 310,991 331,999 354,1012 L 381,999 492,748 772,1049 836,1024 860,1049 C 881,1039 901,1025 922,1006 886,937 835,863 770,784 769,783 710,716 594,584 L 774,223 C 774,196 753,168 711,139 L 727,119 C 717,90 699,76 672,76 641,76 570,178 457,381 L 164,-76 C 142,-110 111,-127 72,-127 30,-127 9,-110 8,-76 1,-67 -2,-52 -2,-32 -2,-23 -1,-13 0,-2 Z"/>
  </g>
  <g id="bullet-char-template(10004)" transform="scale(0.00048828125,-0.00048828125)">
   <path d="M 285,-33 C 182,-33 111,30 74,156 52,228 41,333 41,471 41,549 55,616 82,672 116,743 169,778 240,778 293,778 328,747 346,684 L 369,508 C 377,444 397,411 428,410 L 1163,1116 C 1174,1127 1196,1133 1229,1133 1271,1133 1292,1118 1292,1087 L 1292,965 C 1292,929 1282,901 1262,881 L 442,47 C 390,-6 338,-33 285,-33 Z"/>
  </g>
  <g id="bullet-char-template(9679)" transform="scale(0.00048828125,-0.00048828125)">
   <path d="M 813,0 C 632,0 489,54 383,161 276,268 223,411 223,592 223,773 276,916 383,1023 489,1130 632,1184 813,1184 992,1184 1136,1130 1245,1023 1353,916 1407,772 1407,592 1407,412 1353,268 1245,161 1136,54 992,0 813,0 Z"/>
  </g>
  <g id="bullet-char-template(8226)" transform="scale(0.00048828125,-0.00048828125)">
   <path d="M 346,457 C 273,457 209,483 155,535 101,586 74,649 74,723 74,796 101,859 155,911 209,963 273,989 346,989 419,989 480,963 531,910 582,859 608,796 608,723 608,648 583,586 532,535 482,483 420,457 346,457 Z"/>
  </g>
  <g id="bullet-char-template(8211)" transform="scale(0.00048828125,-0.00048828125)">
   <path d="M -4,459 L 1135,459 1135,606 -4,606 -4,459 Z"/>
  </g>
  <g id="bullet-char-template(61548)" transform="scale(0.00048828125,-0.00048828125)">
   <path d="M 173,740 C 173,903 231,1043 346,1159 462,1274 601,1332 765,1332 928,1332 1067,1274 1183,1159 1299,1043 1357,903 1357,740 1357,577 1299,437 1183,322 1067,206 928,148 765,148 601,148 462,206 346,322 231,437 173,577 173,740 Z"/>
  </g>
 </defs>
 <defs class="TextEmbeddedBitmaps"/>
 <g class="SlideGroup">
  <g>
   <g id="container-id1">
    <g id="id1" class="Slide" clip-path="url(#presentation_clip_path)">
     <g class="Page">
      <g class="com.sun.star.drawing.PolyPolygonShape">
       <g id="id3">
        <rect class="BoundingBox" stroke="none" fill="none" x="1605" y="2486" width="2384" height="2331"/>
        <path fill="rgb(255,255,255)" stroke="none" d="M 1605,4816 L 3988,4816 3988,2486 1605,2486 1605,4816 Z"/>
       </g>
      </g>
      <g class="com.sun.star.drawing.ClosedBezierShape">
       <g id="id4">
        <rect class="BoundingBox" stroke="none" fill="none" x="1795" y="4106" width="220" height="204"/>
        <path fill="rgb(35,31,32)" stroke="none" d="M 1804,4309 L 1795,4309 1795,4231 1804,4231 1804,4233 C 1804,4243 1806,4249 1809,4252 1813,4255 1820,4257 1831,4257 L 1927,4257 C 1956,4257 1976,4251 1988,4241 1999,4231 2005,4217 2005,4200 2005,4184 2000,4171 1988,4162 1977,4153 1959,4149 1933,4149 L 1831,4149 C 1820,4149 1813,4150 1809,4153 1806,4156 1804,4162 1804,4172 L 1804,4174 1795,4174 1795,4106 1804,4106 1804,4107 C 1804,4117 1806,4123 1809,4126 1813,4129 1820,4131 1831,4131 L 1922,4131 C 1944,4131 1960,4132 1969,4135 1978,4137 1987,4143 1994,4151 2007,4165 2014,4184 2014,4210 2014,4232 2009,4249 1998,4262 1991,4271 1983,4277 1974,4280 1964,4282 1948,4284 1927,4284 L 1831,4284 C 1820,4284 1813,4285 1809,4288 1806,4291 1804,4298 1804,4307 L 1804,4309 Z"/>
       </g>
      </g>
      <g class="com.sun.star.drawing.ClosedBezierShape">
       <g id="id5">
        <rect class="BoundingBox" stroke="none" fill="none" x="1795" y="3885" width="220" height="209"/>
        <path fill="rgb(35,31,32)" stroke="none" d="M 1843,4048 L 1971,4048 C 1983,4048 1990,4047 1994,4044 1997,4041 1999,4035 1999,4026 L 1999,4023 2007,4023 2007,4088 1999,4088 1999,4087 C 1999,4078 1997,4071 1994,4069 1990,4066 1983,4064 1971,4064 L 1825,4064 1820,4068 C 1809,4076 1804,4084 1804,4090 L 1804,4093 1795,4093 1795,4052 1951,3925 1831,3925 C 1820,3925 1813,3927 1809,3929 1806,3932 1804,3939 1804,3948 L 1804,3950 1795,3950 1795,3885 1804,3885 1804,3887 C 1804,3897 1806,3903 1809,3906 1813,3909 1820,3910 1831,3910 L 2014,3910 1843,4048 Z"/>
       </g>
      </g>
      <g class="com.sun.star.drawing.ClosedBezierShape">
       <g id="id6">
        <rect class="BoundingBox" stroke="none" fill="none" x="1795" y="3794" width="213" height="80"/>
        <path fill="rgb(35,31,32)" stroke="none" d="M 2007,3794 L 2007,3873 1999,3873 1999,3871 C 1999,3861 1997,3854 1993,3851 1989,3848 1982,3847 1970,3847 L 1831,3847 C 1820,3847 1813,3848 1809,3851 1806,3854 1804,3861 1804,3871 L 1804,3873 1795,3873 1795,3794 1804,3794 1804,3796 C 1804,3806 1806,3812 1809,3815 1813,3818 1820,3819 1831,3819 L 1970,3819 C 1982,3819 1989,3818 1993,3815 1997,3812 1999,3806 1999,3796 L 1999,3794 2007,3794 Z"/>
       </g>
      </g>
      <g class="com.sun.star.drawing.ClosedBezierShape">
       <g id="id7">
        <rect class="BoundingBox" stroke="none" fill="none" x="1795" y="3577" width="220" height="213"/>
        <path fill="rgb(35,31,32)" stroke="none" d="M 1972,3676 L 1831,3618 C 1822,3614 1816,3613 1814,3613 1808,3613 1805,3617 1804,3627 L 1804,3629 1795,3629 1795,3577 1804,3577 1804,3579 C 1804,3585 1806,3589 1810,3593 1814,3596 1821,3600 1831,3604 L 2014,3680 2014,3688 1831,3766 C 1813,3773 1804,3781 1804,3787 L 1804,3789 1795,3789 1795,3727 1804,3727 1804,3729 C 1804,3735 1804,3738 1806,3740 1807,3742 1809,3743 1812,3743 1815,3743 1821,3741 1831,3736 L 1972,3676 Z"/>
       </g>
      </g>
      <g class="com.sun.star.drawing.ClosedBezierShape">
       <g id="id8">
        <rect class="BoundingBox" stroke="none" fill="none" x="1795" y="3422" width="217" height="150"/>
        <path fill="rgb(35,31,32)" stroke="none" d="M 1901,3519 L 1972,3519 C 1981,3519 1988,3515 1991,3507 1995,3500 1997,3486 1997,3466 L 1997,3460 C 1997,3452 1995,3445 1990,3441 1986,3437 1978,3434 1968,3433 L 1965,3432 1965,3422 2011,3426 C 2010,3443 2009,3456 2009,3465 2009,3474 2009,3485 2008,3497 2008,3509 2007,3516 2007,3519 L 2007,3571 1999,3571 1999,3569 C 1999,3560 1997,3554 1993,3551 1990,3548 1982,3546 1971,3546 L 1833,3546 C 1821,3546 1813,3548 1809,3551 1806,3553 1804,3560 1804,3569 L 1804,3571 1795,3571 1795,3431 1836,3427 1836,3438 1833,3438 C 1821,3440 1813,3443 1810,3448 1807,3453 1806,3467 1806,3489 L 1806,3519 1892,3519 1892,3487 C 1892,3472 1891,3462 1889,3458 1886,3454 1880,3452 1872,3452 L 1869,3452 1869,3442 1924,3442 1924,3452 1922,3452 C 1914,3452 1908,3454 1905,3457 1902,3460 1901,3470 1901,3487 L 1901,3519 Z"/>
       </g>
      </g>
      <g class="com.sun.star.drawing.ClosedBezierShape">
       <g id="id9">
        <rect class="BoundingBox" stroke="none" fill="none" x="1795" y="3225" width="213" height="184"/>
        <path fill="rgb(35,31,32)" stroke="none" d="M 1906,3354 L 1970,3354 C 1982,3354 1989,3353 1993,3350 1997,3346 1999,3340 1999,3330 L 1999,3329 2007,3329 2007,3407 1999,3407 1999,3405 C 1999,3395 1997,3389 1993,3386 1989,3383 1982,3382 1970,3382 L 1831,3382 C 1820,3382 1813,3383 1809,3386 1806,3389 1804,3395 1804,3405 L 1804,3407 1795,3407 1795,3326 C 1795,3301 1799,3283 1805,3273 1811,3262 1823,3257 1838,3257 1853,3257 1865,3261 1876,3270 1886,3278 1894,3290 1900,3307 1904,3301 1908,3297 1912,3293 1916,3290 1925,3283 1940,3274 L 1962,3260 C 1977,3251 1987,3244 1991,3240 1997,3235 1999,3231 1999,3226 L 1999,3225 2007,3225 2007,3265 1906,3326 1906,3354 Z M 1898,3354 L 1898,3323 C 1894,3311 1888,3302 1878,3295 1869,3289 1857,3286 1844,3286 1830,3286 1820,3290 1813,3299 1807,3308 1804,3322 1804,3341 L 1804,3354 1898,3354 Z"/>
       </g>
      </g>
      <g class="com.sun.star.drawing.ClosedBezierShape">
       <g id="id10">
        <rect class="BoundingBox" stroke="none" fill="none" x="1789" y="3084" width="226" height="134"/>
        <path fill="rgb(35,31,32)" stroke="none" d="M 2005,3214 L 1959,3217 1959,3206 1961,3205 C 1975,3202 1986,3197 1994,3188 2001,3179 2005,3169 2005,3155 2005,3143 2001,3133 1993,3125 1985,3116 1975,3112 1964,3112 1949,3112 1935,3123 1919,3145 L 1905,3166 C 1890,3186 1879,3199 1872,3206 1864,3213 1854,3216 1843,3216 1827,3216 1814,3208 1804,3195 1794,3182 1789,3165 1789,3143 1789,3126 1792,3109 1798,3092 L 1838,3087 1838,3098 1835,3099 C 1810,3106 1798,3122 1798,3148 1798,3160 1801,3170 1808,3177 1815,3185 1824,3189 1835,3189 1848,3189 1861,3179 1874,3160 L 1895,3130 C 1909,3111 1919,3099 1927,3093 1934,3087 1944,3084 1955,3084 1973,3084 1987,3091 1998,3105 2008,3118 2014,3136 2014,3159 2014,3178 2011,3196 2005,3214 Z"/>
       </g>
      </g>
      <g class="com.sun.star.drawing.ClosedBezierShape">
       <g id="id11">
        <rect class="BoundingBox" stroke="none" fill="none" x="1795" y="2984" width="213" height="80"/>
        <path fill="rgb(35,31,32)" stroke="none" d="M 2007,2984 L 2007,3063 1999,3063 1999,3061 C 1999,3051 1997,3045 1993,3042 1989,3039 1982,3038 1970,3038 L 1831,3038 C 1820,3038 1813,3039 1809,3042 1806,3045 1804,3051 1804,3061 L 1804,3063 1795,3063 1795,2984 1804,2984 1804,2986 C 1804,2996 1806,3002 1809,3006 1813,3009 1820,3010 1831,3010 L 1970,3010 C 1982,3010 1989,3009 1993,3006 1997,3002 1999,2996 1999,2986 L 1999,2984 2007,2984 Z"/>
       </g>
      </g>
      <g class="com.sun.star.drawing.ClosedBezierShape">
       <g id="id12">
        <rect class="BoundingBox" stroke="none" fill="none" x="1792" y="2787" width="216" height="187"/>
        <path fill="rgb(35,31,32)" stroke="none" d="M 1806,2895 L 1806,2916 C 1806,2932 1808,2944 1813,2950 1817,2956 1826,2960 1839,2962 L 1842,2962 1842,2973 1792,2968 C 1794,2945 1795,2920 1795,2895 L 1795,2865 C 1795,2840 1794,2815 1792,2792 L 1842,2787 1842,2798 1839,2798 C 1826,2800 1817,2804 1813,2810 1808,2817 1806,2828 1806,2844 L 1806,2865 1972,2865 C 1983,2865 1990,2864 1994,2860 1997,2857 1999,2849 1999,2838 L 1999,2836 2007,2836 2007,2924 1999,2924 1999,2922 C 1999,2911 1997,2903 1994,2900 1990,2897 1983,2895 1972,2895 L 1806,2895 Z"/>
       </g>
      </g>
      <g class="com.sun.star.drawing.ClosedBezierShape">
       <g id="id13">
        <rect class="BoundingBox" stroke="none" fill="none" x="1789" y="2586" width="219" height="213"/>
        <path fill="rgb(35,31,32)" stroke="none" d="M 1941,2744 L 1972,2757 C 1981,2760 1987,2762 1989,2762 1995,2762 1998,2758 1999,2748 L 1999,2746 2007,2746 2007,2798 1999,2798 1999,2796 C 1999,2790 1997,2786 1993,2782 1989,2779 1982,2775 1971,2770 L 1789,2696 1789,2687 1971,2609 C 1982,2604 1990,2601 1994,2598 1997,2595 1999,2592 1999,2588 L 1999,2586 2007,2586 2007,2649 1999,2649 1999,2647 C 1999,2641 1998,2638 1997,2636 1996,2634 1994,2633 1991,2633 1988,2633 1982,2635 1971,2639 L 1941,2652 1941,2744 Z M 1930,2740 L 1930,2657 1830,2700 1930,2740 Z"/>
       </g>
      </g>
      <g class="com.sun.star.drawing.ClosedBezierShape">
       <g id="id14">
        <rect class="BoundingBox" stroke="none" fill="none" x="1783" y="2553" width="88" height="46"/>
        <path fill="rgb(35,31,32)" stroke="none" d="M 1870,2598 L 1861,2598 C 1852,2584 1837,2576 1818,2575 L 1806,2598 C 1790,2596 1783,2588 1783,2575 1783,2569 1785,2564 1790,2560 1794,2555 1800,2553 1807,2553 1831,2553 1853,2569 1870,2598 Z"/>
       </g>
      </g>
      <g class="com.sun.star.drawing.ClosedBezierShape">
       <g id="id15">
        <rect class="BoundingBox" stroke="none" fill="none" x="2081" y="2590" width="191" height="200"/>
        <path fill="rgb(35,31,32)" stroke="none" d="M 2081,2789 L 2081,2781 2083,2781 C 2092,2781 2098,2779 2100,2776 2103,2773 2104,2766 2104,2755 L 2104,2624 C 2104,2613 2103,2606 2100,2603 2098,2600 2092,2598 2083,2598 L 2081,2598 2081,2590 2154,2590 C 2180,2590 2198,2592 2209,2595 2219,2597 2230,2603 2242,2611 2262,2626 2271,2650 2271,2682 2271,2712 2262,2738 2245,2759 2235,2770 2224,2778 2211,2782 2198,2787 2180,2789 2154,2789 L 2081,2789 Z M 2130,2598 L 2130,2755 C 2130,2772 2144,2780 2173,2780 2195,2780 2211,2772 2224,2756 2237,2740 2243,2718 2243,2691 2243,2665 2235,2642 2220,2625 2211,2615 2201,2608 2191,2604 2180,2600 2163,2598 2144,2598 L 2130,2598 Z"/>
       </g>
      </g>
      <g class="com.sun.star.drawing.ClosedBezierShape">
       <g id="id16">
        <rect class="BoundingBox" stroke="none" fill="none" x="2290" y="2590" width="141" height="203"/>
        <path fill="rgb(35,31,32)" stroke="none" d="M 2340,2688 L 2340,2756 C 2340,2764 2344,2770 2351,2774 2358,2777 2371,2779 2389,2779 L 2394,2779 C 2402,2779 2408,2777 2412,2773 2415,2769 2418,2762 2420,2752 L 2420,2749 2430,2749 2426,2792 C 2410,2791 2398,2791 2390,2791 2381,2791 2372,2790 2360,2790 2349,2789 2342,2789 2340,2789 L 2290,2789 2290,2781 2292,2781 C 2301,2781 2307,2779 2310,2776 2313,2772 2314,2765 2314,2755 L 2314,2624 C 2314,2613 2313,2606 2310,2603 2308,2600 2302,2598 2292,2598 L 2290,2598 2290,2590 2421,2590 2425,2627 2415,2627 2415,2624 C 2413,2613 2410,2606 2405,2603 2400,2601 2388,2600 2367,2600 L 2340,2600 2340,2680 2370,2680 C 2383,2680 2392,2679 2396,2676 2399,2674 2401,2669 2401,2660 L 2401,2658 2411,2658 2411,2710 2401,2710 2401,2708 C 2401,2700 2400,2695 2397,2692 2394,2689 2385,2688 2370,2688 L 2340,2688 Z"/>
       </g>
      </g>
      <g class="com.sun.star.drawing.ClosedBezierShape">
       <g id="id17">
        <rect class="BoundingBox" stroke="none" fill="none" x="2446" y="2584" width="186" height="213"/>
        <path fill="rgb(35,31,32)" stroke="none" d="M 2607,2784 C 2586,2791 2565,2795 2547,2795 2512,2795 2487,2783 2470,2761 2454,2741 2447,2718 2447,2690 2447,2658 2456,2633 2474,2614 2491,2594 2514,2584 2543,2584 2565,2584 2585,2587 2603,2592 L 2607,2632 2597,2632 2597,2630 C 2597,2624 2594,2617 2588,2608 2578,2597 2564,2592 2545,2592 2524,2592 2508,2601 2495,2620 2482,2638 2476,2662 2476,2691 2476,2720 2483,2743 2497,2758 2511,2774 2531,2782 2557,2782 2564,2782 2573,2781 2583,2779 L 2583,2734 C 2583,2724 2582,2717 2579,2714 2576,2710 2571,2709 2562,2709 L 2560,2709 2560,2701 2631,2701 2631,2709 2629,2709 C 2620,2709 2614,2710 2611,2714 2608,2717 2607,2724 2607,2734 L 2607,2784 Z"/>
       </g>
      </g>
      <g class="com.sun.star.drawing.ClosedBezierShape">
       <g id="id18">
        <rect class="BoundingBox" stroke="none" fill="none" x="2646" y="2590" width="141" height="202"/>
        <path fill="rgb(35,31,32)" stroke="none" d="M 2776,2744 L 2786,2744 2782,2791 C 2753,2790 2724,2789 2695,2789 L 2646,2789 2646,2781 2648,2781 C 2657,2781 2663,2779 2666,2776 2668,2772 2670,2765 2670,2755 L 2670,2624 C 2670,2613 2668,2606 2665,2603 2663,2600 2657,2598 2648,2598 L 2646,2598 2646,2590 2720,2590 2720,2598 2718,2598 C 2708,2598 2702,2600 2699,2603 2697,2606 2695,2613 2695,2624 L 2695,2755 C 2695,2763 2698,2769 2705,2772 2712,2775 2724,2777 2741,2777 L 2747,2777 C 2758,2777 2764,2775 2767,2771 2772,2765 2775,2757 2776,2747 L 2776,2744 Z"/>
       </g>
      </g>
      <g class="com.sun.star.drawing.ClosedBezierShape">
       <g id="id19">
        <rect class="BoundingBox" stroke="none" fill="none" x="2796" y="2590" width="76" height="200"/>
        <path fill="rgb(35,31,32)" stroke="none" d="M 2871,2789 L 2796,2789 2796,2781 2799,2781 C 2807,2781 2814,2779 2817,2776 2820,2773 2821,2766 2821,2755 L 2821,2623 C 2821,2613 2820,2606 2817,2603 2814,2600 2807,2598 2799,2598 L 2796,2598 2796,2590 2871,2590 2871,2598 2869,2598 C 2860,2598 2854,2600 2851,2603 2848,2606 2847,2613 2847,2623 L 2847,2755 C 2847,2766 2848,2772 2851,2776 2854,2779 2860,2781 2869,2781 L 2871,2781 2871,2789 Z"/>
       </g>
      </g>
      <g class="com.sun.star.drawing.ClosedBezierShape">
       <g id="id20">
        <rect class="BoundingBox" stroke="none" fill="none" x="2974" y="2584" width="125" height="213"/>
        <path fill="rgb(35,31,32)" stroke="none" d="M 2977,2787 L 2974,2743 2984,2743 2984,2745 C 2987,2758 2992,2769 3000,2776 3008,2783 3019,2787 3032,2787 3043,2787 3053,2783 3061,2775 3069,2768 3073,2758 3073,2748 3073,2734 3062,2720 3042,2706 L 3022,2693 C 3002,2680 2990,2670 2984,2662 2978,2655 2975,2646 2975,2636 2975,2621 2981,2607 2993,2598 3006,2589 3023,2584 3043,2584 3059,2584 3075,2587 3092,2592 L 3096,2630 3086,2630 3085,2628 C 3078,2604 3063,2592 3038,2592 3027,2592 3018,2595 3010,2602 3003,2608 3000,2618 3000,2628 3000,2640 3008,2653 3027,2665 L 3055,2684 C 3073,2696 3085,2706 3090,2713 3096,2720 3098,2729 3098,2740 3098,2757 3092,2770 3079,2780 3067,2790 3050,2795 3028,2795 3009,2795 2993,2792 2977,2787 Z"/>
       </g>
      </g>
      <g class="com.sun.star.drawing.ClosedBezierShape">
       <g id="id21">
        <rect class="BoundingBox" stroke="none" fill="none" x="3115" y="2586" width="176" height="204"/>
        <path fill="rgb(35,31,32)" stroke="none" d="M 3189,2600 L 3169,2600 C 3154,2600 3143,2602 3138,2606 3132,2610 3128,2618 3126,2630 L 3126,2632 3115,2632 3120,2586 C 3142,2589 3165,2590 3189,2590 L 3217,2590 C 3241,2590 3263,2589 3285,2586 L 3290,2632 3280,2632 3279,2630 C 3278,2618 3274,2610 3268,2606 3262,2602 3252,2600 3237,2600 L 3217,2600 3217,2755 C 3217,2766 3218,2773 3222,2776 3225,2779 3232,2781 3242,2781 L 3244,2781 3244,2789 3161,2789 3161,2781 3163,2781 C 3174,2781 3181,2779 3184,2776 3187,2773 3189,2766 3189,2755 L 3189,2600 Z"/>
       </g>
      </g>
      <g class="com.sun.star.drawing.ClosedBezierShape">
       <g id="id22">
        <rect class="BoundingBox" stroke="none" fill="none" x="3299" y="2590" width="193" height="206"/>
        <path fill="rgb(35,31,32)" stroke="none" d="M 3299,2598 L 3299,2590 3373,2590 3373,2598 3371,2598 C 3363,2598 3357,2600 3354,2603 3351,2606 3350,2613 3350,2624 L 3350,2712 C 3350,2740 3354,2760 3364,2770 3373,2781 3386,2787 3403,2787 3418,2787 3430,2781 3438,2771 3446,2761 3450,2744 3451,2718 L 3451,2624 C 3451,2613 3449,2606 3446,2603 3444,2600 3438,2598 3429,2598 L 3427,2598 3427,2590 3490,2590 3490,2598 3488,2598 C 3479,2598 3474,2600 3471,2603 3468,2606 3466,2613 3466,2624 L 3466,2708 C 3466,2729 3465,2744 3463,2753 3461,2762 3456,2770 3448,2777 3435,2789 3417,2795 3393,2795 3373,2795 3357,2790 3345,2780 3336,2774 3331,2766 3328,2757 3325,2748 3324,2732 3324,2712 L 3324,2624 C 3324,2613 3323,2606 3320,2603 3317,2600 3311,2598 3301,2598 L 3299,2598 Z"/>
       </g>
      </g>
      <g class="com.sun.star.drawing.ClosedBezierShape">
       <g id="id23">
        <rect class="BoundingBox" stroke="none" fill="none" x="3505" y="2590" width="192" height="200"/>
        <path fill="rgb(35,31,32)" stroke="none" d="M 3505,2789 L 3505,2781 3508,2781 C 3516,2781 3522,2779 3525,2776 3528,2773 3529,2766 3529,2755 L 3529,2624 C 3529,2613 3528,2606 3525,2603 3522,2600 3516,2598 3508,2598 L 3505,2598 3505,2590 3579,2590 C 3604,2590 3622,2592 3632,2595 3642,2597 3653,2603 3665,2611 3685,2626 3696,2650 3696,2682 3696,2712 3687,2738 3668,2759 3659,2770 3647,2778 3635,2782 3622,2787 3603,2789 3579,2789 L 3505,2789 Z M 3555,2598 L 3555,2755 C 3555,2772 3569,2780 3597,2780 3618,2780 3635,2772 3648,2756 3660,2740 3666,2718 3666,2691 3666,2665 3659,2642 3644,2625 3635,2615 3625,2608 3614,2604 3603,2600 3588,2598 3568,2598 L 3555,2598 Z"/>
       </g>
      </g>
      <g class="com.sun.star.drawing.ClosedBezierShape">
       <g id="id24">
        <rect class="BoundingBox" stroke="none" fill="none" x="3714" y="2590" width="76" height="200"/>
        <path fill="rgb(35,31,32)" stroke="none" d="M 3788,2789 L 3714,2789 3714,2781 3716,2781 C 3725,2781 3731,2779 3734,2776 3736,2773 3738,2766 3738,2755 L 3738,2623 C 3738,2613 3736,2606 3734,2603 3731,2600 3725,2598 3716,2598 L 3714,2598 3714,2590 3788,2590 3788,2598 3786,2598 C 3777,2598 3772,2600 3769,2603 3766,2606 3765,2613 3765,2623 L 3765,2755 C 3765,2766 3766,2772 3769,2776 3772,2779 3777,2781 3786,2781 L 3788,2781 3788,2789 Z"/>
       </g>
      </g>
      <g class="com.sun.star.drawing.ClosedBezierShape">
       <g id="id25">
        <rect class="BoundingBox" stroke="none" fill="none" x="3592" y="2861" width="199" height="193"/>
        <path fill="rgb(35,31,32)" stroke="none" d="M 3592,2861 L 3600,2861 3600,2864 C 3600,2873 3601,2878 3605,2881 3608,2884 3615,2885 3625,2885 L 3757,2885 C 3767,2885 3774,2884 3777,2881 3781,2878 3782,2873 3782,2864 L 3782,2861 3790,2861 3790,2936 C 3790,2961 3788,2979 3786,2989 3783,2999 3778,3011 3769,3022 3754,3042 3731,3052 3699,3052 3669,3052 3643,3043 3621,3025 3610,3016 3602,3005 3598,2992 3594,2979 3592,2960 3592,2936 L 3592,2861 Z M 3782,2911 L 3625,2911 C 3609,2911 3601,2925 3601,2954 3601,2975 3609,2992 3625,3005 3641,3017 3663,3024 3690,3024 3716,3024 3738,3016 3756,3001 3766,2992 3773,2982 3777,2971 3781,2960 3782,2945 3782,2924 L 3782,2911 Z"/>
       </g>
      </g>
      <g class="com.sun.star.drawing.ClosedBezierShape">
       <g id="id26">
        <rect class="BoundingBox" stroke="none" fill="none" x="3592" y="3067" width="199" height="76"/>
        <path fill="rgb(35,31,32)" stroke="none" d="M 3592,3141 L 3592,3067 3600,3067 3600,3069 C 3600,3078 3601,3084 3605,3086 3608,3089 3615,3090 3625,3090 L 3757,3090 C 3767,3090 3774,3089 3777,3086 3781,3084 3782,3078 3782,3069 L 3782,3067 3790,3067 3790,3141 3782,3141 3782,3139 C 3782,3130 3781,3124 3777,3121 3774,3119 3767,3117 3757,3117 L 3625,3117 C 3615,3117 3608,3119 3605,3121 3601,3124 3600,3130 3600,3139 L 3600,3141 3592,3141 Z"/>
       </g>
      </g>
      <g class="com.sun.star.drawing.ClosedBezierShape">
       <g id="id27">
        <rect class="BoundingBox" stroke="none" fill="none" x="3592" y="3236" width="199" height="237"/>
        <path fill="rgb(35,31,32)" stroke="none" d="M 3757,3273 L 3625,3273 C 3615,3273 3608,3274 3605,3277 3601,3280 3600,3286 3600,3295 L 3600,3297 3592,3297 3592,3236 3600,3236 3600,3238 C 3600,3247 3601,3253 3605,3256 3608,3259 3615,3260 3625,3260 L 3757,3260 C 3767,3260 3774,3259 3777,3256 3781,3253 3782,3247 3782,3238 L 3782,3236 3790,3236 3790,3282 3648,3356 3790,3424 3790,3472 3782,3472 3782,3470 C 3782,3461 3781,3455 3777,3452 3774,3449 3767,3448 3757,3448 L 3630,3448 C 3616,3448 3608,3449 3605,3452 3601,3455 3600,3461 3600,3470 L 3600,3472 3592,3472 3592,3400 3600,3400 3600,3402 C 3600,3411 3601,3417 3605,3420 3608,3423 3615,3424 3625,3424 L 3770,3424 3611,3348 3757,3273 Z"/>
       </g>
      </g>
      <g class="com.sun.star.drawing.ClosedBezierShape">
       <g id="id28">
        <rect class="BoundingBox" stroke="none" fill="none" x="3592" y="3485" width="199" height="75"/>
        <path fill="rgb(35,31,32)" stroke="none" d="M 3592,3559 L 3592,3485 3600,3485 3600,3487 C 3600,3496 3601,3502 3605,3505 3608,3508 3615,3509 3625,3509 L 3757,3509 C 3767,3509 3774,3508 3777,3505 3781,3502 3782,3496 3782,3487 L 3782,3485 3790,3485 3790,3559 3782,3559 3782,3557 C 3782,3549 3781,3543 3777,3539 3774,3536 3767,3535 3757,3535 L 3625,3535 C 3615,3535 3608,3536 3605,3539 3601,3543 3600,3549 3600,3557 L 3600,3559 3592,3559 Z"/>
       </g>
      </g>
      <g class="com.sun.star.drawing.ClosedBezierShape">
       <g id="id29">
        <rect class="BoundingBox" stroke="none" fill="none" x="3589" y="3573" width="202" height="141"/>
        <path fill="rgb(35,31,32)" stroke="none" d="M 3636,3703 L 3636,3713 3589,3709 C 3591,3679 3592,3650 3592,3622 L 3592,3573 3600,3573 3600,3575 C 3600,3584 3601,3590 3605,3593 3608,3595 3615,3597 3626,3597 L 3757,3597 C 3767,3597 3774,3595 3777,3592 3781,3590 3782,3584 3782,3575 L 3782,3573 3790,3573 3790,3646 3782,3646 3782,3644 C 3782,3635 3781,3629 3777,3626 3774,3624 3767,3622 3757,3622 L 3626,3622 C 3617,3622 3611,3625 3608,3632 3605,3638 3604,3650 3604,3667 L 3604,3673 C 3604,3685 3606,3691 3610,3694 3616,3699 3624,3702 3633,3703 L 3636,3703 Z"/>
       </g>
      </g>
      <g class="com.sun.star.drawing.ClosedBezierShape">
       <g id="id30">
        <rect class="BoundingBox" stroke="none" fill="none" x="3592" y="3714" width="205" height="200"/>
        <path fill="rgb(35,31,32)" stroke="none" d="M 3654,3765 L 3625,3753 C 3616,3749 3611,3747 3609,3747 3604,3747 3601,3752 3600,3760 L 3600,3763 3592,3763 3592,3714 3600,3714 3600,3716 C 3600,3721 3601,3725 3605,3729 3609,3732 3616,3736 3626,3740 L 3796,3810 3796,3818 3626,3891 C 3615,3895 3608,3899 3605,3902 3601,3904 3600,3907 3600,3911 L 3600,3913 3592,3913 3592,3854 3600,3854 3600,3857 C 3600,3862 3600,3865 3601,3867 3602,3869 3604,3870 3607,3870 3610,3870 3616,3868 3626,3864 L 3654,3852 3654,3765 Z M 3664,3768 L 3664,3847 3758,3806 3664,3768 Z"/>
       </g>
      </g>
      <g class="com.sun.star.drawing.ClosedBezierShape">
       <g id="id31">
        <rect class="BoundingBox" stroke="none" fill="none" x="3586" y="3916" width="205" height="196"/>
        <path fill="rgb(35,31,32)" stroke="none" d="M 3745,3959 L 3625,3959 C 3615,3959 3608,3960 3605,3963 3601,3966 3600,3972 3600,3980 L 3600,3983 3592,3983 3592,3920 3600,3920 3600,3922 C 3600,3931 3601,3936 3605,3939 3608,3942 3615,3943 3625,3943 L 3762,3943 3768,3939 C 3778,3932 3782,3925 3782,3919 L 3782,3916 3790,3916 3790,3954 3644,4074 3757,4074 C 3767,4074 3774,4072 3777,4070 3781,4067 3782,4061 3782,4052 L 3782,4050 3790,4050 3790,4111 3782,4111 3782,4109 C 3782,4100 3781,4094 3777,4092 3774,4089 3767,4088 3757,4088 L 3586,4088 3745,3959 Z"/>
       </g>
      </g>
      <g class="com.sun.star.drawing.ClosedBezierShape">
       <g id="id32">
        <rect class="BoundingBox" stroke="none" fill="none" x="3586" y="4121" width="212" height="191"/>
        <path fill="rgb(35,31,32)" stroke="none" d="M 3586,4217 C 3586,4188 3596,4166 3615,4148 3635,4131 3661,4122 3692,4122 3722,4122 3747,4131 3767,4148 3787,4166 3796,4188 3796,4217 3796,4242 3789,4262 3774,4278 3764,4288 3752,4296 3737,4302 3723,4308 3707,4311 3692,4311 3661,4311 3635,4302 3615,4284 3596,4267 3586,4244 3586,4217 Z M 3594,4217 C 3594,4235 3603,4251 3621,4263 3639,4275 3663,4281 3692,4281 3720,4281 3743,4275 3761,4263 3779,4251 3788,4235 3788,4217 3788,4197 3779,4182 3761,4170 3743,4158 3720,4152 3692,4152 3663,4152 3639,4158 3621,4169 3603,4182 3594,4197 3594,4217 Z"/>
       </g>
      </g>
      <g class="com.sun.star.drawing.ClosedBezierShape">
       <g id="id33">
        <rect class="BoundingBox" stroke="none" fill="none" x="1804" y="4363" width="176" height="374"/>
        <path fill="rgb(35,31,32)" stroke="none" d="M 1905,4494 C 1905,4512 1900,4518 1888,4518 L 1879,4518 1879,4416 1888,4416 C 1900,4416 1905,4422 1905,4440 L 1905,4494 Z M 1804,4736 L 1892,4736 C 1949,4736 1979,4716 1979,4652 L 1979,4619 C 1979,4559 1961,4542 1923,4538 L 1923,4536 C 1970,4527 1979,4502 1979,4467 L 1979,4438 C 1979,4381 1937,4363 1892,4363 L 1804,4363 1804,4736 Z M 1879,4564 L 1888,4564 C 1900,4564 1905,4567 1905,4581 L 1905,4665 C 1905,4679 1900,4683 1888,4683 L 1879,4683 1879,4564 Z"/>
       </g>
      </g>
      <g class="com.sun.star.drawing.PolyPolygonShape">
       <g id="id34">
        <rect class="BoundingBox" stroke="none" fill="none" x="2129" y="4363" width="75" height="374"/>
        <path fill="rgb(35,31,32)" stroke="none" d="M 2129,4736 L 2203,4736 2203,4363 2129,4363 2129,4736 Z"/>
       </g>
      </g>
      <g class="com.sun.star.drawing.ClosedBezierShape">
       <g id="id35">
        <rect class="BoundingBox" stroke="none" fill="none" x="2354" y="4356" width="175" height="388"/>
        <path fill="rgb(35,31,32)" stroke="none" d="M 2453,4590 L 2453,4663 C 2453,4674 2452,4688 2440,4688 2429,4688 2427,4674 2427,4663 L 2427,4436 C 2427,4425 2429,4411 2440,4411 2452,4411 2453,4425 2453,4436 L 2453,4495 2528,4495 2528,4424 C 2528,4374 2486,4356 2440,4356 2395,4356 2354,4374 2354,4424 L 2354,4675 C 2354,4725 2395,4743 2440,4743 2486,4743 2528,4725 2528,4675 L 2528,4590 2453,4590 Z"/>
       </g>
      </g>
      <g class="com.sun.star.drawing.ClosedBezierShape">
       <g id="id36">
        <rect class="BoundingBox" stroke="none" fill="none" x="2672" y="4356" width="175" height="388"/>
        <path fill="rgb(35,31,32)" stroke="none" d="M 2672,4675 C 2672,4725 2714,4743 2759,4743 2805,4743 2846,4725 2846,4675 L 2846,4424 C 2846,4374 2805,4356 2759,4356 2714,4356 2672,4374 2672,4424 L 2672,4675 Z M 2772,4663 C 2772,4674 2771,4688 2759,4688 2748,4688 2746,4674 2746,4663 L 2746,4436 C 2746,4425 2748,4411 2759,4411 2771,4411 2772,4425 2772,4436 L 2772,4663 Z"/>
       </g>
      </g>
      <g class="com.sun.star.drawing.ClosedBezierShape">
       <g id="id37">
        <rect class="BoundingBox" stroke="none" fill="none" x="2989" y="4356" width="176" height="388"/>
        <path fill="rgb(35,31,32)" stroke="none" d="M 3090,4590 L 3090,4663 C 3090,4674 3089,4688 3077,4688 3066,4688 3064,4674 3064,4663 L 3064,4436 C 3064,4425 3066,4411 3077,4411 3089,4411 3090,4425 3090,4436 L 3090,4495 3164,4495 3164,4424 C 3164,4374 3123,4356 3077,4356 3032,4356 2990,4374 2990,4424 L 2990,4675 C 2990,4725 3032,4743 3077,4743 3123,4743 3164,4725 3164,4675 L 3164,4590 3090,4590 Z"/>
       </g>
      </g>
      <g class="com.sun.star.drawing.ClosedBezierShape">
       <g id="id38">
        <rect class="BoundingBox" stroke="none" fill="none" x="3308" y="4356" width="175" height="388"/>
        <path fill="rgb(35,31,32)" stroke="none" d="M 3408,4590 L 3408,4663 C 3408,4674 3407,4688 3395,4688 3384,4688 3382,4674 3382,4663 L 3382,4436 C 3382,4425 3384,4411 3395,4411 3407,4411 3408,4425 3408,4436 L 3408,4495 3482,4495 3482,4424 C 3482,4374 3441,4356 3395,4356 3349,4356 3308,4374 3308,4424 L 3308,4675 C 3308,4725 3349,4743 3395,4743 3441,4743 3482,4725 3482,4675 L 3482,4590 3408,4590 Z"/>
       </g>
      </g>
      <g class="com.sun.star.drawing.PolyPolygonShape">
       <g id="id39">
        <rect class="BoundingBox" stroke="none" fill="none" x="3614" y="4363" width="199" height="374"/>
        <path fill="rgb(35,31,32)" stroke="none" d="M 3698,4580 L 3710,4428 3712,4428 3722,4580 3698,4580 Z M 3614,4736 L 3680,4736 3692,4634 3727,4634 3735,4736 3812,4736 3768,4363 3670,4363 3614,4736 Z"/>
       </g>
      </g>
      <g class="com.sun.star.drawing.PolyPolygonShape">
       <g id="id40">
        <rect class="BoundingBox" stroke="none" fill="none" x="2203" y="2950" width="1286" height="1295"/>
        <path fill="none" stroke="rgb(189,188,188)" stroke-width="29" stroke-linejoin="miter" d="M 2218,3937 L 2481,3545 2218,3229 2218,2991 2592,3446 3342,2972 3463,3074 2659,3580 3369,4028 3394,4215 2560,3693 2225,4186 2218,3937 Z"/>
       </g>
      </g>
      <g class="com.sun.star.drawing.PolyPolygonShape">
       <g id="id41">
        <rect class="BoundingBox" stroke="none" fill="none" x="2087" y="2867" width="1431" height="1432"/>
        <path fill="rgb(189,188,188)" stroke="none" d="M 3214,3572 L 3370,3873 3370,3286 3214,3572 Z M 3140,3751 L 2476,4150 3347,4150 3140,3751 Z M 3370,3015 L 2405,3015 3074,3557 3370,3015 Z M 2236,4128 L 2981,3673 2236,3068 2236,4128 Z M 2087,2867 L 3517,2867 3517,4298 2087,4298 2087,2867 Z"/>
       </g>
      </g>
      <g class="com.sun.star.drawing.PolyPolygonShape">
       <g id="id42">
        <rect class="BoundingBox" stroke="none" fill="none" x="3196" y="3229" width="190" height="705"/>
        <path fill="none" stroke="rgb(189,188,188)" stroke-width="29" stroke-linejoin="miter" d="M 3213,3572 L 3370,3873 3370,3286 3213,3572 Z"/>
       </g>
      </g>
      <g class="com.sun.star.drawing.PolyPolygonShape">
       <g id="id43">
        <rect class="BoundingBox" stroke="none" fill="none" x="2422" y="3729" width="950" height="437"/>
        <path fill="none" stroke="rgb(189,188,188)" stroke-width="29" stroke-linejoin="miter" d="M 3140,3750 L 2475,4150 3347,4150 3140,3750 Z"/>
       </g>
      </g>
      <g class="com.sun.star.drawing.PolyPolygonShape">
       <g id="id44">
        <rect class="BoundingBox" stroke="none" fill="none" x="2363" y="3000" width="1033" height="582"/>
        <path fill="none" stroke="rgb(189,188,188)" stroke-width="29" stroke-linejoin="miter" d="M 3370,3015 L 2404,3015 3074,3558 3370,3015 Z"/>
       </g>
      </g>
      <g class="com.sun.star.drawing.PolyPolygonShape">
       <g id="id45">
        <rect class="BoundingBox" stroke="none" fill="none" x="2220" y="3037" width="788" height="1118"/>
        <path fill="none" stroke="rgb(189,188,188)" stroke-width="29" stroke-linejoin="miter" d="M 2235,4128 L 2981,3672 2235,3068 2235,4128 Z"/>
       </g>
      </g>
      <g class="com.sun.star.drawing.PolyPolygonShape">
       <g id="id46">
        <rect class="BoundingBox" stroke="none" fill="none" x="2072" y="2852" width="1461" height="1462"/>
        <path fill="none" stroke="rgb(189,188,188)" stroke-width="29" stroke-linejoin="miter" d="M 2087,4298 L 3517,4298 3517,2867 2087,2867 2087,4298 Z"/>
       </g>
      </g>
     </g>
    </g>
   </g>
  </g>
 </g>
</svg>