<?xml version="1.0" encoding="UTF-8"?>
<!DOCTYPE svg  PUBLIC '-//W3C//DTD SVG 1.1//EN'  'http://www.w3.org/Graphics/SVG/1.1/DTD/svg11.dtd'>
<svg width="23.83mm" height="23.3mm" fill-rule="evenodd" stroke-linejoin="round" stroke-width="28.222" preserveAspectRatio="xMidYMid" version="1.2" viewBox="1605 2486 2383 2330" xml:space="preserve" xmlns="http://www.w3.org/2000/svg" xmlns:ooo="http://xml.openoffice.org/svg/export">
 <defs class="ClipPathGroup">
  <clipPath id="a">
   <rect x="1605" y="2486" width="2383" height="2330"/>
  </clipPath>
  
 </defs>
 <defs class="TextShapeIndex">
  
 </defs>
 <defs class="EmbeddedBulletChars">
  
  
  
  
  
  
  
  
  
  
 </defs>
 
 <g class="SlideGroup">
  
   
    <g class="Slide" clip-path="url(#a)">
     <g class="Page">
      <g class="com.sun.star.drawing.PolyPolygonShape">
       <g>
        <rect class="BoundingBox" x="1605" y="2486" width="2384" height="2331" fill="none"/>
        <path d="m1605 4816h2383v-2330h-2383v2330z" fill="#fff"/>
       </g>
      </g>
      <g class="com.sun.star.drawing.ClosedBezierShape">
       <g>
        <rect class="BoundingBox" x="1795" y="4106" width="220" height="204" fill="none"/>
        <path d="m1804 4309h-9v-78h9v2c0 10 2 16 5 19 4 3 11 5 22 5h96c29 0 49-6 61-16 11-10 17-24 17-41 0-16-5-29-17-38-11-9-29-13-55-13h-102c-11 0-18 1-22 4-3 3-5 9-5 19v2h-9v-68h9v1c0 10 2 16 5 19 4 3 11 5 22 5h91c22 0 38 1 47 4 9 2 18 8 25 16 13 14 20 33 20 59 0 22-5 39-16 52-7 9-15 15-24 18-10 2-26 4-47 4h-96c-11 0-18 1-22 4-3 3-5 10-5 19v2z" fill="#231f20"/>
       </g>
      </g>
      <g class="com.sun.star.drawing.ClosedBezierShape">
       <g>
        <rect class="BoundingBox" x="1795" y="3885" width="220" height="209" fill="none"/>
        <path d="m1843 4048h128c12 0 19-1 23-4 3-3 5-9 5-18v-3h8v65h-8v-1c0-9-2-16-5-18-4-3-11-5-23-5h-146l-5 4c-11 8-16 16-16 22v3h-9v-41l156-127h-120c-11 0-18 2-22 4-3 3-5 10-5 19v2h-9v-65h9v2c0 10 2 16 5 19 4 3 11 4 22 4h183l-171 138z" fill="#231f20"/>
       </g>
      </g>
      <g class="com.sun.star.drawing.ClosedBezierShape">
       <g>
        <rect class="BoundingBox" x="1795" y="3794" width="213" height="80" fill="none"/>
        <path d="m2007 3794v79h-8v-2c0-10-2-17-6-20s-11-4-23-4h-139c-11 0-18 1-22 4-3 3-5 10-5 20v2h-9v-79h9v2c0 10 2 16 5 19 4 3 11 4 22 4h139c12 0 19-1 23-4s6-9 6-19v-2h8z" fill="#231f20"/>
       </g>
      </g>
      <g class="com.sun.star.drawing.ClosedBezierShape">
       <g>
        <rect class="BoundingBox" x="1795" y="3577" width="220" height="213" fill="none"/>
        <path d="m1972 3676-141-58c-9-4-15-5-17-5-6 0-9 4-10 14v2h-9v-52h9v2c0 6 2 10 6 14 4 3 11 7 21 11l183 76v8l-183 78c-18 7-27 15-27 21v2h-9v-62h9v2c0 6 0 9 2 11 1 2 3 3 6 3s9-2 19-7l141-60z" fill="#231f20"/>
       </g>
      </g>
      <g class="com.sun.star.drawing.ClosedBezierShape">
       <g>
        <rect class="BoundingBox" x="1795" y="3422" width="217" height="150" fill="none"/>
        <path d="m1901 3519h71c9 0 16-4 19-12 4-7 6-21 6-41v-6c0-8-2-15-7-19-4-4-12-7-22-8l-3-1v-10l46 4c-1 17-2 30-2 39s0 20-1 32c0 12-1 19-1 22v52h-8v-2c0-9-2-15-6-18-3-3-11-5-22-5h-138c-12 0-20 2-24 5-3 2-5 9-5 18v2h-9v-140l41-4v11h-3c-12 2-20 5-23 10s-4 19-4 41v30h86v-32c0-15-1-25-3-29-3-4-9-6-17-6h-3v-10h55v10h-2c-8 0-14 2-17 5s-4 13-4 30v32z" fill="#231f20"/>
       </g>
      </g>
      <g class="com.sun.star.drawing.ClosedBezierShape">
       <g>
        <rect class="BoundingBox" x="1795" y="3225" width="213" height="184" fill="none"/>
        <path d="m1906 3354h64c12 0 19-1 23-4 4-4 6-10 6-20v-1h8v78h-8v-2c0-10-2-16-6-19s-11-4-23-4h-139c-11 0-18 1-22 4-3 3-5 9-5 19v2h-9v-81c0-25 4-43 10-53 6-11 18-16 33-16s27 4 38 13c10 8 18 20 24 37 4-6 8-10 12-14 4-3 13-10 28-19l22-14c15-9 25-16 29-20 6-5 8-9 8-14v-1h8v40l-101 61v28zm-8 0v-31c-4-12-10-21-20-28-9-6-21-9-34-9-14 0-24 4-31 13-6 9-9 23-9 42v13h94z" fill="#231f20"/>
       </g>
      </g>
      <g class="com.sun.star.drawing.ClosedBezierShape">
       <g>
        <rect class="BoundingBox" x="1789" y="3084" width="226" height="134" fill="none"/>
        <path d="m2005 3214-46 3v-11l2-1c14-3 25-8 33-17 7-9 11-19 11-33 0-12-4-22-12-30-8-9-18-13-29-13-15 0-29 11-45 33l-14 21c-15 20-26 33-33 40-8 7-18 10-29 10-16 0-29-8-39-21s-15-30-15-52c0-17 3-34 9-51l40-5v11l-3 1c-25 7-37 23-37 49 0 12 3 22 10 29 7 8 16 12 27 12 13 0 26-10 39-29l21-30c14-19 24-31 32-37 7-6 17-9 28-9 18 0 32 7 43 21 10 13 16 31 16 54 0 19-3 37-9 55z" fill="#231f20"/>
       </g>
      </g>
      <g class="com.sun.star.drawing.ClosedBezierShape">
       <g>
        <rect class="BoundingBox" x="1795" y="2984" width="213" height="80" fill="none"/>
        <path d="m2007 2984v79h-8v-2c0-10-2-16-6-19s-11-4-23-4h-139c-11 0-18 1-22 4-3 3-5 9-5 19v2h-9v-79h9v2c0 10 2 16 5 20 4 3 11 4 22 4h139c12 0 19-1 23-4 4-4 6-10 6-20v-2h8z" fill="#231f20"/>
       </g>
      </g>
      <g class="com.sun.star.drawing.ClosedBezierShape">
       <g>
        <rect class="BoundingBox" x="1792" y="2787" width="216" height="187" fill="none"/>
        <path d="m1806 2895v21c0 16 2 28 7 34 4 6 13 10 26 12h3v11l-50-5c2-23 3-48 3-73v-30c0-25-1-50-3-73l50-5v11h-3c-13 2-22 6-26 12-5 7-7 18-7 34v21h166c11 0 18-1 22-5 3-3 5-11 5-22v-2h8v88h-8v-2c0-11-2-19-5-22-4-3-11-5-22-5h-166z" fill="#231f20"/>
       </g>
      </g>
      <g class="com.sun.star.drawing.ClosedBezierShape">
       <g>
        <rect class="BoundingBox" x="1789" y="2586" width="219" height="213" fill="none"/>
        <path d="m1941 2744 31 13c9 3 15 5 17 5 6 0 9-4 10-14v-2h8v52h-8v-2c0-6-2-10-6-14-4-3-11-7-22-12l-182-74v-9l182-78c11-5 19-8 23-11 3-3 5-6 5-10v-2h8v63h-8v-2c0-6-1-9-2-11s-3-3-6-3-9 2-20 6l-30 13v92zm-11-4v-83l-100 43 100 40z" fill="#231f20"/>
       </g>
      </g>
      <g class="com.sun.star.drawing.ClosedBezierShape">
       <g>
        <rect class="BoundingBox" x="1783" y="2553" width="88" height="46" fill="none"/>
        <path d="m1870 2598h-9c-9-14-24-22-43-23l-12 23c-16-2-23-10-23-23 0-6 2-11 7-15 4-5 10-7 17-7 24 0 46 16 63 45z" fill="#231f20"/>
       </g>
      </g>
      <g class="com.sun.star.drawing.ClosedBezierShape">
       <g>
        <rect class="BoundingBox" x="2081" y="2590" width="191" height="200" fill="none"/>
        <path d="m2081 2789v-8h2c9 0 15-2 17-5 3-3 4-10 4-21v-131c0-11-1-18-4-21-2-3-8-5-17-5h-2v-8h73c26 0 44 2 55 5 10 2 21 8 33 16 20 15 29 39 29 71 0 30-9 56-26 77-10 11-21 19-34 23-13 5-31 7-57 7h-73zm49-191v157c0 17 14 25 43 25 22 0 38-8 51-24s19-38 19-65c0-26-8-49-23-66-9-10-19-17-29-21-11-4-28-6-47-6h-14z" fill="#231f20"/>
       </g>
      </g>
      <g class="com.sun.star.drawing.ClosedBezierShape">
       <g>
        <rect class="BoundingBox" x="2290" y="2590" width="141" height="203" fill="none"/>
        <path d="m2340 2688v68c0 8 4 14 11 18 7 3 20 5 38 5h5c8 0 14-2 18-6 3-4 6-11 8-21v-3h10l-4 43c-16-1-28-1-36-1-9 0-18-1-30-1-11-1-18-1-20-1h-50v-8h2c9 0 15-2 18-5 3-4 4-11 4-21v-131c0-11-1-18-4-21-2-3-8-5-18-5h-2v-8h131l4 37h-10v-3c-2-11-5-18-10-21-5-2-17-3-38-3h-27v80h30c13 0 22-1 26-4 3-2 5-7 5-16v-2h10v52h-10v-2c0-8-1-13-4-16s-12-4-27-4h-30z" fill="#231f20"/>
       </g>
      </g>
      <g class="com.sun.star.drawing.ClosedBezierShape">
       <g>
        <rect class="BoundingBox" x="2446" y="2584" width="186" height="213" fill="none"/>
        <path d="m2607 2784c-21 7-42 11-60 11-35 0-60-12-77-34-16-20-23-43-23-71 0-32 9-57 27-76 17-20 40-30 69-30 22 0 42 3 60 8l4 40h-10v-2c0-6-3-13-9-22-10-11-24-16-43-16-21 0-37 9-50 28-13 18-19 42-19 71s7 52 21 67c14 16 34 24 60 24 7 0 16-1 26-3v-45c0-10-1-17-4-20-3-4-8-5-17-5h-2v-8h71v8h-2c-9 0-15 1-18 5-3 3-4 10-4 20v50z" fill="#231f20"/>
       </g>
      </g>
      <g class="com.sun.star.drawing.ClosedBezierShape">
       <g>
        <rect class="BoundingBox" x="2646" y="2590" width="141" height="202" fill="none"/>
        <path d="m2776 2744h10l-4 47c-29-1-58-2-87-2h-49v-8h2c9 0 15-2 18-5 2-4 4-11 4-21v-131c0-11-2-18-5-21-2-3-8-5-17-5h-2v-8h74v8h-2c-10 0-16 2-19 5-2 3-4 10-4 21v131c0 8 3 14 10 17s19 5 36 5h6c11 0 17-2 20-6 5-6 8-14 9-24v-3z" fill="#231f20"/>
       </g>
      </g>
      <g class="com.sun.star.drawing.ClosedBezierShape">
       <g>
        <rect class="BoundingBox" x="2796" y="2590" width="76" height="200" fill="none"/>
        <path d="m2871 2789h-75v-8h3c8 0 15-2 18-5s4-10 4-21v-132c0-10-1-17-4-20s-10-5-18-5h-3v-8h75v8h-2c-9 0-15 2-18 5s-4 10-4 20v132c0 11 1 17 4 21 3 3 9 5 18 5h2v8z" fill="#231f20"/>
       </g>
      </g>
      <g class="com.sun.star.drawing.ClosedBezierShape">
       <g>
        <rect class="BoundingBox" x="2974" y="2584" width="125" height="213" fill="none"/>
        <path d="m2977 2787-3-44h10v2c3 13 8 24 16 31s19 11 32 11c11 0 21-4 29-12 8-7 12-17 12-27 0-14-11-28-31-42l-20-13c-20-13-32-23-38-31-6-7-9-16-9-26 0-15 6-29 18-38 13-9 30-14 50-14 16 0 32 3 49 8l4 38h-10l-1-2c-7-24-22-36-47-36-11 0-20 3-28 10-7 6-10 16-10 26 0 12 8 25 27 37l28 19c18 12 30 22 35 29 6 7 8 16 8 27 0 17-6 30-19 40-12 10-29 15-51 15-19 0-35-3-51-8z" fill="#231f20"/>
       </g>
      </g>
      <g class="com.sun.star.drawing.ClosedBezierShape">
       <g>
        <rect class="BoundingBox" x="3115" y="2586" width="176" height="204" fill="none"/>
        <path d="m3189 2600h-20c-15 0-26 2-31 6-6 4-10 12-12 24v2h-11l5-46c22 3 45 4 69 4h28c24 0 46-1 68-4l5 46h-10l-1-2c-1-12-5-20-11-24s-16-6-31-6h-20v155c0 11 1 18 5 21 3 3 10 5 20 5h2v8h-83v-8h2c11 0 18-2 21-5s5-10 5-21v-155z" fill="#231f20"/>
       </g>
      </g>
      <g class="com.sun.star.drawing.ClosedBezierShape">
       <g>
        <rect class="BoundingBox" x="3299" y="2590" width="193" height="206" fill="none"/>
        <path d="m3299 2598v-8h74v8h-2c-8 0-14 2-17 5s-4 10-4 21v88c0 28 4 48 14 58 9 11 22 17 39 17 15 0 27-6 35-16s12-27 13-53v-94c0-11-2-18-5-21-2-3-8-5-17-5h-2v-8h63v8h-2c-9 0-14 2-17 5s-5 10-5 21v84c0 21-1 36-3 45s-7 17-15 24c-13 12-31 18-55 18-20 0-36-5-48-15-9-6-14-14-17-23s-4-25-4-45v-88c0-11-1-18-4-21s-9-5-19-5h-2z" fill="#231f20"/>
       </g>
      </g>
      <g class="com.sun.star.drawing.ClosedBezierShape">
       <g>
        <rect class="BoundingBox" x="3505" y="2590" width="192" height="200" fill="none"/>
        <path d="m3505 2789v-8h3c8 0 14-2 17-5s4-10 4-21v-131c0-11-1-18-4-21s-9-5-17-5h-3v-8h74c25 0 43 2 53 5 10 2 21 8 33 16 20 15 31 39 31 71 0 30-9 56-28 77-9 11-21 19-33 23-13 5-32 7-56 7h-74zm50-191v157c0 17 14 25 42 25 21 0 38-8 51-24 12-16 18-38 18-65 0-26-7-49-22-66-9-10-19-17-30-21s-26-6-46-6h-13z" fill="#231f20"/>
       </g>
      </g>
      <g class="com.sun.star.drawing.ClosedBezierShape">
       <g>
        <rect class="BoundingBox" x="3714" y="2590" width="76" height="200" fill="none"/>
        <path d="m3788 2789h-74v-8h2c9 0 15-2 18-5 2-3 4-10 4-21v-132c0-10-2-17-4-20-3-3-9-5-18-5h-2v-8h74v8h-2c-9 0-14 2-17 5s-4 10-4 20v132c0 11 1 17 4 21 3 3 8 5 17 5h2v8z" fill="#231f20"/>
       </g>
      </g>
      <g class="com.sun.star.drawing.ClosedBezierShape">
       <g>
        <rect class="BoundingBox" x="3592" y="2861" width="199" height="193" fill="none"/>
        <path d="m3592 2861h8v3c0 9 1 14 5 17 3 3 10 4 20 4h132c10 0 17-1 20-4 4-3 5-8 5-17v-3h8v75c0 25-2 43-4 53-3 10-8 22-17 33-15 20-38 30-70 30-30 0-56-9-78-27-11-9-19-20-23-33s-6-32-6-56v-75zm190 50h-157c-16 0-24 14-24 43 0 21 8 38 24 51 16 12 38 19 65 19 26 0 48-8 66-23 10-9 17-19 21-30s5-26 5-47v-13z" fill="#231f20"/>
       </g>
      </g>
      <g class="com.sun.star.drawing.ClosedBezierShape">
       <g>
        <rect class="BoundingBox" x="3592" y="3067" width="199" height="76" fill="none"/>
        <path d="m3592 3141v-74h8v2c0 9 1 15 5 17 3 3 10 4 20 4h132c10 0 17-1 20-4 4-2 5-8 5-17v-2h8v74h-8v-2c0-9-1-15-5-18-3-2-10-4-20-4h-132c-10 0-17 2-20 4-4 3-5 9-5 18v2h-8z" fill="#231f20"/>
       </g>
      </g>
      <g class="com.sun.star.drawing.ClosedBezierShape">
       <g>
        <rect class="BoundingBox" x="3592" y="3236" width="199" height="237" fill="none"/>
        <path d="m3757 3273h-132c-10 0-17 1-20 4-4 3-5 9-5 18v2h-8v-61h8v2c0 9 1 15 5 18 3 3 10 4 20 4h132c10 0 17-1 20-4 4-3 5-9 5-18v-2h8v46l-142 74 142 68v48h-8v-2c0-9-1-15-5-18-3-3-10-4-20-4h-127c-14 0-22 1-25 4-4 3-5 9-5 18v2h-8v-72h8v2c0 9 1 15 5 18 3 3 10 4 20 4h145l-159-76 146-75z" fill="#231f20"/>
       </g>
      </g>
      <g class="com.sun.star.drawing.ClosedBezierShape">
       <g>
        <rect class="BoundingBox" x="3592" y="3485" width="199" height="75" fill="none"/>
        <path d="m3592 3559v-74h8v2c0 9 1 15 5 18 3 3 10 4 20 4h132c10 0 17-1 20-4 4-3 5-9 5-18v-2h8v74h-8v-2c0-8-1-14-5-18-3-3-10-4-20-4h-132c-10 0-17 1-20 4-4 4-5 10-5 18v2h-8z" fill="#231f20"/>
       </g>
      </g>
      <g class="com.sun.star.drawing.ClosedBezierShape">
       <g>
        <rect class="BoundingBox" x="3589" y="3573" width="202" height="141" fill="none"/>
        <path d="m3636 3703v10l-47-4c2-30 3-59 3-87v-49h8v2c0 9 1 15 5 18 3 2 10 4 21 4h131c10 0 17-2 20-5 4-2 5-8 5-17v-2h8v73h-8v-2c0-9-1-15-5-18-3-2-10-4-20-4h-131c-9 0-15 3-18 10-3 6-4 18-4 35v6c0 12 2 18 6 21 6 5 14 8 23 9h3z" fill="#231f20"/>
       </g>
      </g>
      <g class="com.sun.star.drawing.ClosedBezierShape">
       <g>
        <rect class="BoundingBox" x="3592" y="3714" width="205" height="200" fill="none"/>
        <path d="m3654 3765-29-12c-9-4-14-6-16-6-5 0-8 5-9 13v3h-8v-49h8v2c0 5 1 9 5 13 4 3 11 7 21 11l170 70v8l-170 73c-11 4-18 8-21 11-4 2-5 5-5 9v2h-8v-59h8v3c0 5 0 8 1 10s3 3 6 3 9-2 19-6l28-12v-87zm10 3v79l94-41-94-38z" fill="#231f20"/>
       </g>
      </g>
      <g class="com.sun.star.drawing.ClosedBezierShape">
       <g>
        <rect class="BoundingBox" x="3586" y="3916" width="205" height="196" fill="none"/>
        <path d="m3745 3959h-120c-10 0-17 1-20 4-4 3-5 9-5 17v3h-8v-63h8v2c0 9 1 14 5 17 3 3 10 4 20 4h137l6-4c10-7 14-14 14-20v-3h8v38l-146 120h113c10 0 17-2 20-4 4-3 5-9 5-18v-2h8v61h-8v-2c0-9-1-15-5-17-3-3-10-4-20-4h-171l159-129z" fill="#231f20"/>
       </g>
      </g>
      <g class="com.sun.star.drawing.ClosedBezierShape">
       <g>
        <rect class="BoundingBox" x="3586" y="4121" width="212" height="191" fill="none"/>
        <path d="m3586 4217c0-29 10-51 29-69 20-17 46-26 77-26 30 0 55 9 75 26 20 18 29 40 29 69 0 25-7 45-22 61-10 10-22 18-37 24-14 6-30 9-45 9-31 0-57-9-77-27-19-17-29-40-29-67zm8 0c0 18 9 34 27 46s42 18 71 18c28 0 51-6 69-18s27-28 27-46c0-20-9-35-27-47s-41-18-69-18c-29 0-53 6-71 17-18 13-27 28-27 48z" fill="#231f20"/>
       </g>
      </g>
      <g class="com.sun.star.drawing.ClosedBezierShape">
       <g>
        <rect class="BoundingBox" x="1804" y="4363" width="176" height="374" fill="none"/>
        <path d="m1905 4494c0 18-5 24-17 24h-9v-102h9c12 0 17 6 17 24v54zm-101 242h88c57 0 87-20 87-84v-33c0-60-18-77-56-81v-2c47-9 56-34 56-69v-29c0-57-42-75-87-75h-88v373zm75-172h9c12 0 17 3 17 17v84c0 14-5 18-17 18h-9v-119z" fill="#231f20"/>
       </g>
      </g>
      <g class="com.sun.star.drawing.PolyPolygonShape">
       <g>
        <rect class="BoundingBox" x="2129" y="4363" width="75" height="374" fill="none"/>
        <path d="m2129 4736h74v-373h-74v373z" fill="#231f20"/>
       </g>
      </g>
      <g class="com.sun.star.drawing.ClosedBezierShape">
       <g>
        <rect class="BoundingBox" x="2354" y="4356" width="175" height="388" fill="none"/>
        <path d="m2453 4590v73c0 11-1 25-13 25-11 0-13-14-13-25v-227c0-11 2-25 13-25 12 0 13 14 13 25v59h75v-71c0-50-42-68-88-68-45 0-86 18-86 68v251c0 50 41 68 86 68 46 0 88-18 88-68v-85h-75z" fill="#231f20"/>
       </g>
      </g>
      <g class="com.sun.star.drawing.ClosedBezierShape">
       <g>
        <rect class="BoundingBox" x="2672" y="4356" width="175" height="388" fill="none"/>
        <path d="m2672 4675c0 50 42 68 87 68 46 0 87-18 87-68v-251c0-50-41-68-87-68-45 0-87 18-87 68v251zm100-12c0 11-1 25-13 25-11 0-13-14-13-25v-227c0-11 2-25 13-25 12 0 13 14 13 25v227z" fill="#231f20"/>
       </g>
      </g>
      <g class="com.sun.star.drawing.ClosedBezierShape">
       <g>
        <rect class="BoundingBox" x="2989" y="4356" width="176" height="388" fill="none"/>
        <path d="m3090 4590v73c0 11-1 25-13 25-11 0-13-14-13-25v-227c0-11 2-25 13-25 12 0 13 14 13 25v59h74v-71c0-50-41-68-87-68-45 0-87 18-87 68v251c0 50 42 68 87 68 46 0 87-18 87-68v-85h-74z" fill="#231f20"/>
       </g>
      </g>
      <g class="com.sun.star.drawing.ClosedBezierShape">
       <g>
        <rect class="BoundingBox" x="3308" y="4356" width="175" height="388" fill="none"/>
        <path d="m3408 4590v73c0 11-1 25-13 25-11 0-13-14-13-25v-227c0-11 2-25 13-25 12 0 13 14 13 25v59h74v-71c0-50-41-68-87-68s-87 18-87 68v251c0 50 41 68 87 68s87-18 87-68v-85h-74z" fill="#231f20"/>
       </g>
      </g>
      <g class="com.sun.star.drawing.PolyPolygonShape">
       <g>
        <rect class="BoundingBox" x="3614" y="4363" width="199" height="374" fill="none"/>
        <path d="m3698 4580 12-152h2l10 152h-24zm-84 156h66l12-102h35l8 102h77l-44-373h-98l-56 373z" fill="#231f20"/>
       </g>
      </g>
      <g class="com.sun.star.drawing.PolyPolygonShape">
       <g fill="none">
        <rect class="BoundingBox" x="2203" y="2950" width="1286" height="1295"/>
        <path d="m2218 3937 263-392-263-316v-238l374 455 750-474 121 102-804 506 710 448 25 187-834-522-335 493-7-249z" stroke="#bdbcbc" stroke-linejoin="miter" stroke-width="29"/>
       </g>
      </g>
      <g class="com.sun.star.drawing.PolyPolygonShape">
       <g>
        <rect class="BoundingBox" x="2087" y="2867" width="1431" height="1432" fill="none"/>
        <path d="m3214 3572 156 301v-587l-156 286zm-74 179-664 399h871l-207-399zm230-736h-965l669 542 296-542zm-1134 1113 745-455-745-605v1060zm-149-1261h1430v1431h-1430v-1431z" fill="#bdbcbc"/>
       </g>
      </g>
      <g class="com.sun.star.drawing.PolyPolygonShape">
       <g fill="none">
        <rect class="BoundingBox" x="3196" y="3229" width="190" height="705"/>
        <path d="m3213 3572 157 301v-587l-157 286z" stroke="#bdbcbc" stroke-linejoin="miter" stroke-width="29"/>
       </g>
      </g>
      <g class="com.sun.star.drawing.PolyPolygonShape">
       <g fill="none">
        <rect class="BoundingBox" x="2422" y="3729" width="950" height="437"/>
        <path d="m3140 3750-665 400h872l-207-400z" stroke="#bdbcbc" stroke-linejoin="miter" stroke-width="29"/>
       </g>
      </g>
      <g class="com.sun.star.drawing.PolyPolygonShape">
       <g fill="none">
        <rect class="BoundingBox" x="2363" y="3e3" width="1033" height="582"/>
        <path d="m3370 3015h-966l670 543 296-543z" stroke="#bdbcbc" stroke-linejoin="miter" stroke-width="29"/>
       </g>
      </g>
      <g class="com.sun.star.drawing.PolyPolygonShape">
       <g fill="none">
        <rect class="BoundingBox" x="2220" y="3037" width="788" height="1118"/>
        <path d="m2235 4128 746-456-746-604v1060z" stroke="#bdbcbc" stroke-linejoin="miter" stroke-width="29"/>
       </g>
      </g>
      <g class="com.sun.star.drawing.PolyPolygonShape">
       <g fill="none">
        <rect class="BoundingBox" x="2072" y="2852" width="1461" height="1462"/>
        <path d="m2087 4298h1430v-1431h-1430v1431z" stroke="#bdbcbc" stroke-linejoin="miter" stroke-width="29"/>
       </g>
      </g>
     </g>
    </g>
   
  
 </g>
</svg>
