<svg width="42" height="46" viewBox="0 0 42 46" fill="none" xmlns="http://www.w3.org/2000/svg">
<path fill-rule="evenodd" clip-rule="evenodd" d="M40.9059 0C41.4936 0 41.9546 0.504357 41.9019 1.08968L38.356 40.4707C38.3187 40.8844 38.0296 41.2319 37.6296 41.3439L21.2696 45.9245C21.0933 45.9739 20.9067 45.9739 20.7304 45.9245L4.37036 41.3439C3.97037 41.2319 3.68125 40.8843 3.644 40.4706L0.0981153 1.08968C0.0454127 0.504357 0.506398 0 1.09409 0H40.9059ZM10.9305 27.6873C10.8985 27.114 11.3547 26.6316 11.9289 26.6316H14.8518C15.3886 26.6316 15.8296 27.0554 15.851 27.5917L15.9059 28.968C15.9224 29.3833 16.194 29.745 16.5882 29.8767L20.6831 31.2449C20.8888 31.3136 21.1112 31.3136 21.3169 31.2449L25.4308 29.8703C25.8155 29.7418 26.0844 29.3937 26.1117 28.989L26.3615 25.2777C26.4004 24.7003 25.9425 24.2105 25.3638 24.2105H16.5162C15.984 24.2105 15.545 23.7937 15.5175 23.2623L15.3702 20.4202C15.3406 19.8483 15.7963 19.3684 16.3689 19.3684H25.7572C26.2801 19.3684 26.7148 18.9654 26.7543 18.4439L26.9696 15.6018C27.0135 15.0215 26.5545 14.5263 25.9724 14.5263H10.934C10.4114 14.5263 9.97693 14.1239 9.93695 13.6028L9.71886 10.7607C9.6743 10.18 10.1335 9.68421 10.7159 9.68421H31.1773C31.7546 9.68421 32.212 10.1717 32.1753 10.7479L31.6255 19.3684L30.7993 32.6094C30.7737 33.0197 30.4996 33.3725 30.1084 33.4988L21.3072 36.3396C21.1075 36.404 20.8925 36.404 20.6928 36.3396L11.8961 33.5003C11.5027 33.3732 11.2279 33.0172 11.2049 32.6043L10.9305 27.6873Z" fill="black"/>
</svg>
